<?xml version="1.0" encoding="UTF-8"?>
<svg width="50px" height="50px" version="1.1" viewBox="0 0 32 32" xmlns="http://www.w3.org/2000/svg">
<title>arrow-right-circle</title>
<desc>Created with Sketch Beta.</desc>
<g fill="none" fill-rule="evenodd">
<g transform="translate(-310 -1089)" fill="#000">
<path d="m332.54 1105.9-5.656 5.66c-0.391 0.39-1.024 0.39-1.414 0-0.391-0.39-0.391-1.03 0-1.42l4.121-4.12h-10.586c-0.553 0-1-0.45-1-1s0.447-1 1-1h10.586l-4.121-4.12c-0.391-0.39-0.391-1.02 0-1.42 0.39-0.39 1.023-0.39 1.414 0l5.656 5.66c0.24 0.24 0.315 0.57 0.26 0.88 0.055 0.31-0.02 0.64-0.26 0.88zm-6.535-16.88c-8.837 0-16 7.16-16 16s7.163 16 16 16 16-7.16 16-16-7.163-16-16-16z"></path>
</g>
</g>
</svg>
