<?xml version="1.0" encoding="UTF-8"?>
<svg width="50px" height="50px" version="1.1" viewBox="0 0 32 32" xmlns="http://www.w3.org/2000/svg">
<title>arrow-down-circle</title>
<desc>Created with Sketch Beta.</desc>
<g fill="none" fill-rule="evenodd">
<g transform="translate(-414 -1089)" fill="#000">
<path d="m436.54 1105.9-5.656 5.66c-0.24 0.24-0.568 0.31-0.879 0.25-0.311 0.06-0.639-0.01-0.879-0.25l-5.656-5.66c-0.391-0.39-0.391-1.02 0-1.42 0.39-0.39 1.023-0.39 1.414 0l4.121 4.13v-10.59c0-0.55 0.448-1 1-1 0.553 0 1 0.45 1 1v10.59l4.121-4.13c0.391-0.39 1.025-0.39 1.414 0 0.391 0.4 0.391 1.03 0 1.42zm-6.535-16.88c-8.837 0-16 7.16-16 16s7.163 16 16 16 16-7.16 16-16-7.163-16-16-16z"></path>
</g>
</g>
</svg>
